ply
format ascii 1.0
comment Created by Blender 2.78 (sub 0) - www.blender.org, source file: ''
element vertex 463
property float x
property float y
property float z
property float nx
property float ny
property float nz
property float s
property float t
element face 470
property list uchar uint vertex_indices
end_header
-1.000000 6.561576 0.096439 -1.000000 0.000000 0.000000 0.016842 0.907574
-1.000000 7.000000 0.000001 -1.000000 0.000000 0.000000 0.000218 0.983140
-1.000000 6.561576 0.000001 -1.000000 0.000000 0.000000 0.000220 0.907574
-1.000000 7.000000 0.000001 0.000000 1.000000 -0.000000 0.016840 0.999762
-0.500000 7.000000 0.096439 0.000000 1.000000 -0.000000 0.103020 0.983143
-0.500000 7.000000 0.000001 0.000000 1.000000 -0.000000 0.103019 0.999766
1.000000 6.561576 0.096439 0.000000 -0.000000 1.000000 0.361624 0.907592
0.500000 7.000000 0.096439 0.000000 -0.000000 1.000000 0.275404 0.983163
0.500000 6.561576 0.096439 0.000000 -0.000000 1.000000 0.275415 0.907577
-0.500000 6.561576 0.096439 0.000000 -0.000000 1.000000 0.103020 0.907572
-1.000000 7.000000 0.096439 0.000000 -0.000000 1.000000 0.016840 0.983140
-1.000000 6.561576 0.096439 0.000000 -0.000000 1.000000 0.016842 0.907574
0.000000 6.561576 0.096439 0.000000 -0.000000 1.000000 0.189211 0.907570
-0.253915 7.000000 0.096439 0.000000 -0.000000 1.000000 0.145437 0.983146
-0.253915 6.561576 0.096439 0.000000 -0.000000 1.000000 0.145439 0.907571
0.000000 7.000000 0.096439 0.000000 -0.000000 1.000000 0.189207 0.983150
0.500000 7.000000 0.000001 0.000000 1.000000 -0.000000 0.275401 0.999789
1.000000 7.000000 0.096439 0.000000 1.000000 -0.000000 0.361607 0.983180
1.000000 7.000000 0.000001 0.000000 1.000000 -0.000000 0.361604 0.999806
0.000000 7.000000 0.000001 0.000000 1.000000 -0.000000 0.189205 0.999774
0.500000 7.000000 0.096439 0.000000 1.000000 -0.000000 0.275404 0.983163
-0.253915 7.000000 0.096439 0.000000 1.000000 -0.000000 0.145437 0.983146
-0.253915 7.000000 0.000001 0.000000 1.000000 -0.000000 0.145436 0.999769
1.159201 1.519704 0.000000 0.518115 -0.000000 0.855311 0.818429 0.640627
1.000000 1.738916 0.096438 0.518115 -0.000000 0.855311 0.819421 0.690204
1.000000 1.300492 0.096438 0.518115 -0.000000 0.855311 0.769347 0.633568
1.000000 7.000000 0.096439 0.809133 0.587626 0.000000 0.429163 0.853069
1.159201 6.780788 0.000001 0.809133 0.587626 0.000000 0.477561 0.863867
1.000000 7.000000 0.000001 0.809133 0.587626 0.000000 0.431195 0.869574
1.000000 1.300492 0.096438 0.809132 -0.587626 0.000000 0.769347 0.633568
1.000000 1.300492 0.000000 0.809132 -0.587626 0.000000 0.777097 0.618855
1.159201 1.519704 0.000000 0.809132 -0.587626 0.000000 0.818429 0.640627
1.159201 6.780788 0.000001 0.518115 -0.000000 0.855311 0.477561 0.863867
1.000000 7.000000 0.096439 0.518115 -0.000000 0.855311 0.429163 0.853069
1.000000 6.561576 0.096439 0.518115 -0.000000 0.855311 0.496062 0.817860
1.159201 6.342364 0.000001 0.518115 -0.000000 0.855311 0.539472 0.793892
1.000000 6.123153 0.096439 0.518115 -0.000000 0.855311 0.522859 0.747171
1.159201 5.903941 0.000001 0.518115 -0.000000 0.855311 0.539504 0.700461
1.000000 5.684729 0.096439 0.518115 -0.000000 0.855311 0.496111 0.676463
1.159201 5.465517 0.000001 0.518115 -0.000000 0.855311 0.477641 0.630443
1.000000 5.246305 0.096439 0.518115 -0.000000 0.855311 0.429236 0.641207
1.159201 5.027094 0.000001 0.518115 -0.000000 0.855311 0.616270 0.821229
1.000000 5.246305 0.096439 0.518115 -0.000000 0.855311 0.567187 0.828287
1.000000 4.807882 0.096439 0.518115 -0.000000 0.855311 0.617262 0.771651
1.159201 4.588670 0.000001 0.518115 -0.000000 0.855311 0.649357 0.733852
1.000000 4.369458 0.096439 0.518115 -0.000000 0.855311 0.617262 0.696053
1.159201 4.150246 0.000001 0.518115 -0.000000 0.855311 0.616269 0.646476
1.000000 3.931035 0.096439 0.518115 -0.000000 0.855311 0.567187 0.639417
1.159201 3.711823 0.000001 0.518115 -0.000000 0.855311 0.722224 0.813430
1.000000 3.931035 0.096439 0.518115 -0.000000 0.855311 0.673141 0.820489
1.000000 3.492611 0.096439 0.518115 -0.000000 0.855311 0.723216 0.763853
1.159201 3.273399 0.000001 0.518115 -0.000000 0.855311 0.755311 0.726053
1.000000 3.054187 0.096438 0.518115 -0.000000 0.855311 0.723216 0.688254
1.159201 2.834975 0.000000 0.518115 -0.000000 0.855311 0.722223 0.638677
1.000000 2.615764 0.096438 0.518115 -0.000000 0.855311 0.673141 0.631618
1.159201 2.396552 0.000000 0.518115 -0.000000 0.855311 0.818429 0.815379
1.000000 2.615764 0.096438 0.518115 -0.000000 0.855311 0.769347 0.822438
1.000000 2.177340 0.096438 0.518115 -0.000000 0.855311 0.819421 0.765802
1.159201 1.958128 0.000000 0.518115 -0.000000 0.855311 0.851517 0.728003
1.000000 6.561576 0.000001 0.809133 -0.587626 0.000000 0.508516 0.828880
1.159201 6.780788 0.000001 0.809133 -0.587626 0.000000 0.477561 0.863867
1.000000 6.561576 0.096439 0.809133 -0.587626 0.000000 0.496062 0.817860
1.159201 6.342364 0.000001 0.809133 0.587626 0.000000 0.539472 0.793892
1.000000 6.561576 0.000001 0.809133 0.587626 0.000000 0.508516 0.828880
1.000000 6.561576 0.096439 0.809133 0.587626 0.000000 0.496062 0.817860
1.000000 6.123153 0.000001 0.809131 -0.587629 0.000000 0.539488 0.747176
1.159201 6.342364 0.000001 0.809131 -0.587629 0.000000 0.539472 0.793892
1.000000 6.123153 0.096439 0.809131 -0.587629 0.000000 0.522859 0.747171
1.159201 5.903941 0.000001 0.809133 0.587626 0.000000 0.539504 0.700461
1.000000 6.123153 0.000001 0.809133 0.587626 0.000000 0.539488 0.747176
1.000000 6.123153 0.096439 0.809133 0.587626 0.000000 0.522859 0.747171
1.000000 5.684729 0.000001 0.809133 -0.587626 0.000000 0.508573 0.665452
1.159201 5.903941 0.000001 0.809133 -0.587626 0.000000 0.539504 0.700461
1.000000 5.684729 0.096439 0.809133 -0.587626 0.000000 0.496111 0.676463
1.159201 5.465517 0.000001 0.809133 0.587626 0.000000 0.477641 0.630443
1.000000 5.684729 0.000001 0.809133 0.587626 0.000000 0.508573 0.665452
1.000000 5.684729 0.096439 0.809133 0.587626 0.000000 0.496111 0.676463
1.000000 5.246305 0.000001 0.809133 -0.587626 0.000000 0.431279 0.624704
1.159201 5.465517 0.000001 0.809133 -0.587626 0.000000 0.477641 0.630443
1.000000 5.246305 0.096439 0.809133 -0.587626 0.000000 0.429236 0.641207
1.159201 5.027094 0.000001 0.809131 0.587628 0.000000 0.616270 0.821229
1.000000 5.246305 0.000001 0.809131 0.587628 0.000000 0.574937 0.843000
1.000000 5.246305 0.096439 0.809131 0.587628 0.000000 0.567187 0.828287
1.000000 4.807882 0.000001 0.809133 -0.587626 0.000000 0.632813 0.777540
1.159201 5.027094 0.000001 0.809133 -0.587626 0.000000 0.616270 0.821229
1.000000 4.807882 0.096439 0.809133 -0.587626 0.000000 0.617262 0.771651
1.159201 4.588670 0.000001 0.809133 0.587626 0.000000 0.649357 0.733852
1.000000 4.807882 0.000001 0.809133 0.587626 0.000000 0.632813 0.777540
1.000000 4.807882 0.096439 0.809133 0.587626 0.000000 0.617262 0.771651
1.000000 4.369458 0.000001 0.809132 -0.587627 0.000000 0.632813 0.690164
1.159201 4.588670 0.000001 0.809132 -0.587627 0.000000 0.649357 0.733852
1.000000 4.369458 0.096439 0.809132 -0.587627 0.000000 0.617262 0.696053
1.159201 4.150246 0.000001 0.809133 0.587626 0.000000 0.616269 0.646476
1.000000 4.369458 0.000001 0.809133 0.587626 0.000000 0.632813 0.690164
1.000000 4.369458 0.096439 0.809133 0.587626 0.000000 0.617262 0.696053
1.000000 3.931034 0.000001 0.809133 -0.587626 0.000006 0.574937 0.624704
1.159201 4.150246 0.000001 0.809133 -0.587626 0.000006 0.616269 0.646476
1.000000 3.931035 0.096439 0.809133 -0.587626 0.000006 0.567187 0.639417
1.159201 3.711823 0.000001 0.809131 0.587628 -0.000006 0.722224 0.813430
1.000000 3.931034 0.000001 0.809131 0.587628 -0.000006 0.680891 0.835201
1.000000 3.931035 0.096439 0.809131 0.587628 -0.000006 0.673141 0.820489
1.000000 3.492611 0.000001 0.809133 -0.587626 0.000000 0.738767 0.769741
1.159201 3.711823 0.000001 0.809133 -0.587626 0.000000 0.722224 0.813430
1.000000 3.492611 0.096439 0.809133 -0.587626 0.000000 0.723216 0.763853
1.159201 3.273399 0.000001 0.809132 0.587627 0.000000 0.755311 0.726053
1.000000 3.492611 0.000001 0.809132 0.587627 0.000000 0.738767 0.769741
1.000000 3.492611 0.096439 0.809132 0.587627 0.000000 0.723216 0.763853
1.000000 3.054187 0.000000 0.809133 -0.587626 0.000000 0.738767 0.682365
1.159201 3.273399 0.000001 0.809133 -0.587626 0.000000 0.755311 0.726053
1.000000 3.054187 0.096438 0.809133 -0.587626 0.000000 0.723216 0.688254
1.159201 2.834975 0.000000 0.809133 0.587626 0.000000 0.722223 0.638677
1.000000 3.054187 0.000000 0.809133 0.587626 0.000000 0.738767 0.682365
1.000000 3.054187 0.096438 0.809133 0.587626 0.000000 0.723216 0.688254
1.000000 2.615763 0.000000 0.809133 -0.587626 0.000006 0.680891 0.616906
1.159201 2.834975 0.000000 0.809133 -0.587626 0.000006 0.722223 0.638677
1.000000 2.615764 0.096438 0.809133 -0.587626 0.000006 0.673141 0.631618
1.159201 2.396552 0.000000 0.809131 0.587628 -0.000006 0.818429 0.815379
1.000000 2.615763 0.000000 0.809131 0.587628 -0.000006 0.777097 0.837151
1.000000 2.615764 0.096438 0.809131 0.587628 -0.000006 0.769347 0.822438
1.000000 2.177340 0.000000 0.809133 -0.587626 0.000000 0.834973 0.771691
1.159201 2.396552 0.000000 0.809133 -0.587626 0.000000 0.818429 0.815379
1.000000 2.177340 0.096438 0.809133 -0.587626 0.000000 0.819421 0.765802
1.159201 1.958128 0.000000 0.809133 0.587626 0.000000 0.851517 0.728003
1.000000 2.177340 0.000000 0.809133 0.587626 0.000000 0.834973 0.771691
1.000000 2.177340 0.096438 0.809133 0.587626 0.000000 0.819421 0.765802
1.000000 1.738916 0.000000 0.809132 -0.587626 0.000000 0.834973 0.684315
1.159201 1.958128 0.000000 0.809132 -0.587626 0.000000 0.851517 0.728003
1.000000 1.738916 0.096438 0.809132 -0.587626 0.000000 0.819421 0.690204
1.159201 1.519704 0.000000 0.809133 0.587626 0.000000 0.818429 0.640627
1.000000 1.738916 0.000000 0.809133 0.587626 0.000000 0.834973 0.684315
1.000000 1.738916 0.096438 0.809133 0.587626 0.000000 0.819421 0.690204
0.500000 1.300492 0.096438 0.000000 -0.000000 1.000000 0.275345 0.000205
0.000000 5.246305 0.096439 0.000000 -0.000000 1.000000 0.189226 0.680768
0.000000 1.300492 0.096438 0.000000 -0.000000 1.000000 0.189320 0.000205
-0.253915 5.246305 0.096439 0.000000 -0.000000 1.000000 0.145814 0.680042
-0.253915 1.300492 0.096438 0.000000 -0.000000 1.000000 0.145416 0.000200
-0.500000 1.300492 0.096438 0.000000 -0.000000 1.000000 0.103080 0.000204
-1.000000 5.246305 0.096439 0.000000 -0.000000 1.000000 0.016825 0.680854
-1.000000 1.300492 0.096438 0.000000 -0.000000 1.000000 0.016829 0.000207
1.000000 1.300492 0.096438 0.000000 -0.000000 1.000000 0.361586 0.000194
0.500000 5.246305 0.096439 0.000000 -0.000000 1.000000 0.275445 0.680773
-1.000000 1.300492 0.096438 -1.000000 0.000000 0.000000 0.016829 0.000207
-1.000000 5.246305 0.000001 -1.000000 0.000000 0.000000 0.000196 0.680856
-1.000000 1.300492 0.000000 -1.000000 0.000000 0.000000 0.000194 0.000207
0.000000 5.903941 0.000001 -1.000000 0.000000 -0.000000 0.568063 0.962818
0.000000 5.246305 0.096439 -1.000000 0.000000 -0.000000 0.454672 0.946150
0.000000 5.903941 0.096439 -1.000000 0.000000 -0.000000 0.568069 0.946189
1.000000 5.903941 0.096439 0.000000 -0.000000 1.000000 0.361650 0.794200
0.500000 5.903941 0.096439 0.000000 -0.000000 1.000000 0.275426 0.794188
0.000000 5.903941 0.096439 0.000000 -0.000000 1.000000 0.189193 0.794191
-0.500000 5.903941 0.096439 0.000000 -0.000000 1.000000 0.103012 0.794210
-1.000000 5.903941 0.096439 0.000000 -0.000000 1.000000 0.016842 0.794223
0.004833 6.561576 0.096439 -0.692149 0.721755 0.000000 0.947923 0.782903
0.004833 6.561576 0.000001 -0.692149 0.721755 0.000000 0.941310 0.798160
-0.260726 6.306910 0.000001 -0.692149 0.721755 0.000000 0.883100 0.772927
-0.260726 6.306910 0.000001 -0.341340 -0.000000 0.939940 0.883100 0.772927
0.004833 6.052243 0.096439 -0.341340 -0.000000 0.939940 0.899729 0.709483
0.004833 6.561576 0.096439 -0.341340 -0.000000 0.939940 0.947923 0.782903
-0.260726 5.797575 0.000001 -0.341340 -0.000000 0.939940 0.883100 0.646039
0.004833 5.542909 0.096439 -0.341340 -0.000000 0.939940 0.947923 0.636062
0.004833 6.052243 0.000001 -0.692150 -0.721754 -0.000000 0.883100 0.709483
0.004833 6.052243 0.096439 -0.692150 -0.721754 -0.000000 0.899729 0.709483
-0.260726 6.306910 0.000001 -0.692150 -0.721754 -0.000000 0.883100 0.772927
-0.260726 5.797575 0.000001 -0.692152 0.721752 0.000000 0.883100 0.646039
0.004833 6.052243 0.096439 -0.692152 0.721752 0.000000 0.899729 0.709483
0.004833 6.052243 0.000001 -0.692152 0.721752 0.000000 0.883100 0.709483
0.004833 5.542909 0.000001 -0.692149 -0.721755 -0.000000 0.941310 0.620805
0.004833 5.542909 0.096439 -0.692149 -0.721755 -0.000000 0.947923 0.636062
-0.260726 5.797575 0.000001 -0.692149 -0.721755 -0.000000 0.883100 0.646039
-1.000000 5.903941 0.096439 -1.000000 0.000000 0.000000 0.016842 0.794223
-1.000000 5.903941 0.000001 -1.000000 0.000000 0.000000 0.000218 0.794225
-0.253915 6.561576 0.000001 0.000000 -1.000000 -0.000000 0.616947 0.905287
0.000000 6.561576 0.096439 0.000000 -1.000000 -0.000000 0.660730 0.921916
-0.253915 6.561576 0.096439 0.000000 -1.000000 -0.000000 0.616947 0.921916
-0.253915 5.246305 0.000001 0.000000 1.000000 0.000000 0.703551 0.921916
-0.500000 5.246305 0.096439 0.000000 1.000000 0.000000 0.661118 0.905287
-0.253915 5.246305 0.096439 0.000000 1.000000 0.000000 0.703551 0.905287
-0.500000 5.246305 0.096439 1.000000 0.000000 0.000000 0.681854 0.962857
-0.500000 5.903941 0.000001 1.000000 0.000000 0.000000 0.795251 0.946228
-0.500000 5.903941 0.096439 1.000000 0.000000 0.000000 0.795251 0.962857
0.000000 5.246305 0.000001 0.000000 1.000000 0.000000 0.747334 0.921916
0.000000 5.246305 0.096439 0.000000 1.000000 0.000000 0.747334 0.905287
-0.500000 5.246305 0.096439 0.000000 -0.000000 1.000000 0.103056 0.680814
-0.500000 6.561576 0.000001 0.000000 -1.000000 -0.000000 0.574514 0.905287
-0.500000 6.561576 0.096439 0.000000 -1.000000 -0.000000 0.574514 0.921916
0.000000 7.000000 0.096439 0.000000 1.000000 -0.000000 0.189207 0.983150
-0.500000 7.000000 0.096439 0.000000 -0.000000 1.000000 0.103020 0.983143
1.000000 5.246305 0.096439 0.000000 -0.000000 1.000000 0.361675 0.680779
0.000000 6.561576 0.000001 -1.000000 0.000000 -0.000000 0.681460 0.962857
0.000000 6.561576 0.096439 -1.000000 0.000000 -0.000000 0.681466 0.946228
-0.500000 6.561576 0.000001 1.000000 0.000000 0.000000 0.908648 0.946228
-0.500000 6.561576 0.096439 1.000000 0.000000 0.000000 0.908648 0.962857
-1.000000 5.246305 0.096439 -1.000000 0.000000 0.000000 0.016825 0.680854
-1.000000 7.000000 0.096439 -1.000000 -0.000000 0.000000 0.016840 0.983140
-1.000000 7.000000 0.096439 0.000000 1.000000 0.000000 0.016840 0.983140
1.000000 7.000000 0.096439 0.000000 -0.000000 1.000000 0.361607 0.983180
0.000000 5.246305 0.000001 -1.000000 0.000000 0.000000 0.454666 0.962779
0.000000 6.561576 0.000001 -0.000000 -1.000000 -0.000000 0.660730 0.905287
-0.500000 5.246305 0.000001 -0.000000 1.000000 0.000000 0.661118 0.921916
-0.500000 5.246305 0.000001 1.000000 0.000000 -0.000000 0.681854 0.946228
-1.000000 6.561576 -0.096437 -1.000000 0.000000 -0.000000 0.016842 0.907574
-0.500000 7.000000 -0.096437 0.000000 1.000000 -0.000000 0.103020 0.983143
1.000000 6.561576 -0.096437 0.000000 0.000000 -1.000000 0.361624 0.907592
0.500000 6.561576 -0.096437 0.000000 0.000000 -1.000000 0.275415 0.907577
0.500000 7.000000 -0.096437 0.000000 0.000000 -1.000000 0.275404 0.983163
-0.500000 6.561576 -0.096437 0.000000 0.000000 -1.000000 0.103020 0.907572
-1.000000 6.561576 -0.096437 0.000000 0.000000 -1.000000 0.016842 0.907574
-1.000000 7.000000 -0.096437 0.000000 0.000000 -1.000000 0.016840 0.983140
0.000000 6.561576 -0.096437 0.000000 0.000000 -1.000000 0.189211 0.907570
-0.253915 6.561576 -0.096437 0.000000 0.000000 -1.000000 0.145439 0.907571
-0.253915 7.000000 -0.096437 0.000000 0.000000 -1.000000 0.145437 0.983146
0.000000 7.000000 -0.096437 0.000000 0.000000 -1.000000 0.189207 0.983150
1.000000 7.000000 -0.096437 0.000000 1.000000 -0.000000 0.361607 0.983180
0.500000 7.000000 -0.096437 0.000000 1.000000 -0.000000 0.275404 0.983163
-0.253915 7.000000 -0.096437 0.000000 1.000000 -0.000000 0.145437 0.983146
1.159201 1.519704 0.000000 0.518115 0.000000 -0.855311 0.818429 0.640627
1.000000 1.300492 -0.096438 0.518115 0.000000 -0.855311 0.769347 0.633568
1.000000 1.738916 -0.096438 0.518115 0.000000 -0.855311 0.819421 0.690204
1.000000 7.000000 -0.096437 0.809133 0.587626 0.000000 0.429163 0.853069
1.000000 1.300492 -0.096438 0.809132 -0.587626 0.000000 0.769347 0.633568
1.159201 6.780788 0.000001 0.518115 0.000000 -0.855311 0.477561 0.863867
1.000000 6.561576 -0.096437 0.518115 0.000000 -0.855311 0.496062 0.817860
1.000000 7.000000 -0.096437 0.518115 0.000000 -0.855311 0.429163 0.853069
1.159201 6.342364 0.000001 0.518115 0.000000 -0.855311 0.539472 0.793892
1.000000 6.123153 -0.096437 0.518115 0.000000 -0.855311 0.522859 0.747171
1.159201 5.903941 0.000001 0.518115 0.000000 -0.855311 0.539504 0.700461
1.000000 5.684729 -0.096437 0.518115 0.000000 -0.855311 0.496111 0.676463
1.159201 5.465517 0.000001 0.518115 0.000000 -0.855311 0.477641 0.630443
1.000000 5.246305 -0.096437 0.518115 0.000000 -0.855311 0.429236 0.641207
1.159201 5.027094 0.000001 0.518115 0.000000 -0.855311 0.616270 0.821229
1.000000 4.807882 -0.096437 0.518115 0.000000 -0.855311 0.617262 0.771651
1.000000 5.246305 -0.096437 0.518115 0.000000 -0.855311 0.567187 0.828287
1.159201 4.588670 0.000001 0.518115 0.000000 -0.855311 0.649357 0.733852
1.000000 4.369458 -0.096437 0.518115 0.000000 -0.855311 0.617262 0.696053
1.159201 4.150246 0.000001 0.518115 0.000000 -0.855311 0.616269 0.646476
1.000000 3.931035 -0.096437 0.518115 0.000000 -0.855311 0.567187 0.639417
1.159201 3.711823 0.000001 0.518115 0.000000 -0.855311 0.722224 0.813430
1.000000 3.492611 -0.096437 0.518115 0.000000 -0.855311 0.723216 0.763853
1.000000 3.931035 -0.096437 0.518115 0.000000 -0.855311 0.673141 0.820489
1.159201 3.273399 0.000001 0.518115 0.000000 -0.855311 0.755311 0.726053
1.000000 3.054187 -0.096437 0.518115 0.000000 -0.855311 0.723216 0.688254
1.159201 2.834975 0.000000 0.518115 0.000000 -0.855311 0.722223 0.638677
1.000000 2.615764 -0.096438 0.518115 0.000000 -0.855311 0.673141 0.631618
1.159201 2.396552 0.000000 0.518115 0.000000 -0.855311 0.818429 0.815379
1.000000 2.177340 -0.096438 0.518115 0.000000 -0.855311 0.819421 0.765802
1.000000 2.615764 -0.096438 0.518115 0.000000 -0.855311 0.769347 0.822438
1.159201 1.958128 0.000000 0.518115 0.000000 -0.855311 0.851517 0.728003
1.000000 6.561576 -0.096437 0.809133 -0.587626 0.000000 0.496062 0.817860
1.000000 6.561576 -0.096437 0.809133 0.587626 0.000000 0.496062 0.817860
1.000000 6.123153 -0.096437 0.809131 -0.587629 0.000000 0.522859 0.747171
1.000000 6.123153 -0.096437 0.809133 0.587626 0.000000 0.522859 0.747171
1.000000 5.684729 -0.096437 0.809133 -0.587626 0.000000 0.496111 0.676463
1.000000 5.684729 -0.096437 0.809133 0.587626 0.000000 0.496111 0.676463
1.000000 5.246305 -0.096437 0.809133 -0.587626 0.000000 0.429236 0.641207
1.000000 5.246305 -0.096437 0.809131 0.587628 0.000000 0.567187 0.828287
1.000000 4.807882 -0.096437 0.809133 -0.587626 0.000000 0.617262 0.771651
1.000000 4.807882 -0.096437 0.809133 0.587626 0.000000 0.617262 0.771651
1.000000 4.369458 -0.096437 0.809132 -0.587627 0.000000 0.617262 0.696053
1.000000 4.369458 -0.096437 0.809133 0.587626 0.000000 0.617262 0.696053
1.000000 3.931034 0.000001 0.809133 -0.587626 -0.000006 0.574937 0.624704
1.000000 3.931035 -0.096437 0.809133 -0.587626 -0.000006 0.567187 0.639417
1.159201 4.150246 0.000001 0.809133 -0.587626 -0.000006 0.616269 0.646476
1.159201 3.711823 0.000001 0.809131 0.587628 0.000006 0.722224 0.813430
1.000000 3.931035 -0.096437 0.809131 0.587628 0.000006 0.673141 0.820489
1.000000 3.931034 0.000001 0.809131 0.587628 0.000006 0.680891 0.835201
1.000000 3.492611 -0.096437 0.809133 -0.587626 0.000000 0.723216 0.763853
1.000000 3.492611 -0.096437 0.809132 0.587627 0.000000 0.723216 0.763853
1.000000 3.054187 -0.096437 0.809133 -0.587626 0.000000 0.723216 0.688254
1.000000 3.054187 -0.096437 0.809133 0.587626 0.000000 0.723216 0.688254
1.000000 2.615763 0.000000 0.809133 -0.587626 -0.000006 0.680891 0.616906
1.000000 2.615764 -0.096438 0.809133 -0.587626 -0.000006 0.673141 0.631618
1.159201 2.834975 0.000000 0.809133 -0.587626 -0.000006 0.722223 0.638677
1.159201 2.396552 0.000000 0.809131 0.587628 0.000006 0.818429 0.815379
1.000000 2.615764 -0.096438 0.809131 0.587628 0.000006 0.769347 0.822438
1.000000 2.615763 0.000000 0.809131 0.587628 0.000006 0.777097 0.837151
1.000000 2.177340 -0.096438 0.809133 -0.587626 0.000000 0.819421 0.765802
1.000000 2.177340 -0.096438 0.809133 0.587626 0.000000 0.819421 0.765802
1.000000 1.738916 -0.096438 0.809132 -0.587626 0.000000 0.819421 0.690204
1.000000 1.738916 -0.096438 0.809133 0.587626 0.000000 0.819421 0.690204
0.500000 1.300492 -0.096438 0.000000 0.000000 -1.000000 0.275345 0.000205
0.000000 1.300492 -0.096438 0.000000 0.000000 -1.000000 0.189320 0.000205
0.000000 5.246305 -0.096437 0.000000 0.000000 -1.000000 0.189226 0.680768
-0.253915 1.300492 -0.096438 0.000000 0.000000 -1.000000 0.145416 0.000200
-0.253915 5.246305 -0.096437 0.000000 0.000000 -1.000000 0.145814 0.680042
-0.500000 1.300492 -0.096438 0.000000 0.000000 -1.000000 0.103080 0.000204
-1.000000 1.300492 -0.096438 0.000000 0.000000 -1.000000 0.016829 0.000207
-1.000000 5.246305 -0.096437 0.000000 0.000000 -1.000000 0.016825 0.680854
1.000000 1.300492 -0.096438 0.000000 0.000000 -1.000000 0.361586 0.000194
0.500000 5.246305 -0.096437 0.000000 0.000000 -1.000000 0.275445 0.680773
-1.000000 1.300492 -0.096438 -1.000000 0.000000 -0.000000 0.016829 0.000207
0.000000 5.903941 -0.096437 -1.000000 0.000000 0.000000 0.568069 0.946189
0.000000 5.246305 -0.096437 -1.000000 0.000000 0.000000 0.454672 0.946150
1.000000 5.903941 -0.096437 0.000000 0.000000 -1.000000 0.361650 0.794200
0.500000 5.903941 -0.096437 0.000000 0.000000 -1.000000 0.275426 0.794188
0.000000 5.903941 -0.096437 0.000000 0.000000 -1.000000 0.189193 0.794191
-0.500000 5.903941 -0.096437 0.000000 0.000000 -1.000000 0.103012 0.794210
-1.000000 5.903941 -0.096437 0.000000 0.000000 -1.000000 0.016842 0.794223
0.004833 6.561576 -0.096437 -0.692149 0.721755 0.000000 0.947923 0.782903
-0.260726 6.306910 0.000001 -0.341340 0.000000 -0.939940 0.883100 0.772927
0.004833 6.561576 -0.096437 -0.341340 0.000000 -0.939940 0.947923 0.782903
0.004833 6.052243 -0.096437 -0.341340 0.000000 -0.939940 0.899729 0.709483
-0.260726 5.797575 0.000001 -0.341340 0.000000 -0.939940 0.883100 0.646039
0.004833 5.542909 -0.096437 -0.341340 0.000000 -0.939940 0.947923 0.636062
0.004833 6.052243 -0.096437 -0.692150 -0.721754 0.000000 0.899729 0.709483
0.004833 6.052243 -0.096437 -0.692152 0.721752 0.000000 0.899729 0.709483
0.004833 5.542909 -0.096437 -0.692149 -0.721755 0.000000 0.947923 0.636062
-1.000000 5.903941 -0.096437 -1.000000 0.000000 -0.000000 0.016842 0.794223
-0.253915 6.561576 -0.096437 0.000000 -1.000000 0.000000 0.616947 0.921916
0.000000 6.561576 -0.096437 0.000000 -1.000000 0.000000 0.660730 0.921916
-0.253915 5.246305 -0.096437 0.000000 1.000000 0.000000 0.703551 0.905287
-0.500000 5.246305 -0.096437 0.000000 1.000000 0.000000 0.661118 0.905287
-0.500000 5.246305 -0.096437 1.000000 0.000000 0.000000 0.681854 0.962857
-0.500000 5.903941 -0.096437 1.000000 0.000000 0.000000 0.795251 0.962857
0.000000 5.246305 -0.096437 0.000000 1.000000 0.000000 0.747334 0.905287
-0.500000 5.246305 -0.096437 0.000000 0.000000 -1.000000 0.103056 0.680814
-0.500000 6.561576 -0.096437 0.000000 -1.000000 0.000000 0.574514 0.921916
0.000000 7.000000 -0.096437 0.000000 1.000000 -0.000000 0.189207 0.983150
-0.500000 7.000000 -0.096437 0.000000 0.000000 -1.000000 0.103020 0.983143
1.000000 5.246305 -0.096437 0.000000 0.000000 -1.000000 0.361675 0.680779
0.000000 6.561576 -0.096437 -1.000000 0.000000 0.000000 0.681466 0.946228
-0.500000 6.561576 -0.096437 1.000000 0.000000 0.000000 0.908648 0.962857
-1.000000 5.246305 -0.096437 -1.000000 0.000000 -0.000000 0.016825 0.680854
-1.000000 7.000000 -0.096437 -1.000000 -0.000000 0.000000 0.016840 0.983140
-1.000000 7.000000 -0.096437 0.000000 1.000000 -0.000000 0.016840 0.983140
1.000000 7.000000 -0.096437 0.000000 0.000000 -1.000000 0.361607 0.983180
0.945408 1.000000 0.000000 1.000000 0.000000 0.000000 0.886978 0.416887
0.945408 0.681444 0.175322 0.702078 -0.015992 0.711905 0.851293 0.367004
0.945408 0.681444 0.000000 1.000000 0.000000 0.000000 0.881187 0.363714
-0.531324 1.000000 0.175322 0.000000 0.000000 1.000000 0.601479 0.472163
-1.062647 0.681444 0.175322 -0.577349 -0.577349 0.577349 0.496776 0.460498
-0.452857 0.681444 0.175322 -0.123844 -0.587542 0.799615 0.594182 0.409812
0.945408 -1.000000 -0.000000 0.707083 -0.707083 0.000000 0.820683 0.046588
0.500000 -1.000000 0.175322 0.000000 -0.707083 0.707083 0.746909 0.080889
0.500000 -1.000000 -0.000000 0.000000 -1.000000 0.000000 0.746154 0.051486
0.945408 1.000000 0.175322 0.707083 0.000000 0.707083 0.857313 0.420289
0.531324 1.174520 0.175322 0.000000 0.276070 0.961119 0.790228 0.459686
0.531324 1.000000 0.175322 0.000000 0.000000 1.000000 0.785632 0.429475
-1.062647 1.000000 0.175322 -0.707083 0.000000 0.707083 0.518022 0.508053
-1.062647 0.681444 0.000000 -0.707083 -0.707083 0.000000 0.470616 0.472106
-1.062647 1.174520 0.000000 -0.973479 0.228675 0.000000 0.503051 0.545884
-1.062647 1.000000 0.000000 -1.000000 0.000000 0.000000 0.491653 0.519624
0.945408 1.174520 0.175322 0.614002 0.146184 0.775628 0.861014 0.449962
-1.062647 1.174520 0.175322 -0.670553 0.291086 0.682333 0.529424 0.534476
0.000000 1.000000 0.175322 0.000000 0.000000 1.000000 0.692619 0.446157
-0.253915 1.174520 0.175322 0.000000 0.276070 0.961119 0.656737 0.486494
-0.253915 1.000000 0.175322 0.000000 0.000000 1.000000 0.648418 0.456967
0.000000 1.174520 0.175322 0.000000 0.276070 0.961119 0.699267 0.476058
-0.500000 -1.000000 -0.000000 0.000000 -0.999969 0.000000 0.586091 0.038311
-0.743625 -1.000000 0.175322 0.000000 -0.707083 0.707083 0.538993 0.053895
-0.743625 -1.000000 -0.000000 0.000000 -1.000000 0.000000 0.548466 0.026411
0.000000 -1.000000 -0.000000 0.000000 -1.000000 0.000000 0.664614 0.050763
-0.253915 -1.000000 0.175322 0.000000 -0.707083 0.707083 0.619791 0.075154
-0.253915 -1.000000 -0.000000 0.000000 -1.000000 0.000000 0.624367 0.046471
0.000000 -1.000000 0.175322 0.000000 -0.707083 0.707083 0.662703 0.079618
0.643102 -0.000000 0.144681 -0.670919 0.015290 0.741325 0.793910 0.250569
0.531324 0.681444 0.000000 -0.647328 -0.762169 0.000000 0.754560 0.348144
0.643102 0.000000 0.000000 -0.999725 0.022187 0.000000 0.765452 0.253583
0.000000 0.681444 0.000000 0.327250 -0.944914 0.000000 0.689168 0.365781
0.531324 0.681444 0.175322 -0.292611 -0.365429 0.883633 0.777020 0.372199
-0.047080 0.681444 0.175322 0.123814 -0.587634 0.799554 0.673925 0.392536
-0.253915 0.681444 0.175322 -0.000946 -0.341807 0.939756 0.632422 0.397381
-0.448997 -0.681444 0.175322 -0.124363 0.582293 0.803369 0.573274 0.127509
-0.500000 -1.000000 0.175322 0.000000 -0.707083 0.707083 0.578711 0.066602
-0.406599 0.628105 0.105967 -0.547166 -0.505509 0.667074 0.596015 0.389045
-0.253915 0.628105 0.139063 -0.005005 -0.304117 0.952605 0.629661 0.385143
0.945408 -0.681444 0.175322 0.702078 0.015992 0.711905 0.827519 0.129702
0.500000 -0.681444 0.175322 -0.291299 0.379376 0.878170 0.749771 0.137337
-1.000000 -0.597149 0.175322 -0.484817 0.669759 0.562456 0.472185 0.099081
-1.000000 -1.000000 -0.000000 -0.707083 -0.707083 0.000000 0.473068 0.026838
-1.000000 -1.000000 0.175322 -0.577349 -0.577349 0.577349 0.499361 0.038665
-0.743625 -0.681444 0.175322 0.105564 0.659200 0.744499 0.519105 0.107470
0.945408 -0.681444 -0.000000 1.000000 0.000000 0.000000 0.857229 0.126799
0.945408 -1.000000 0.175322 0.577349 -0.577349 0.577349 0.822735 0.075860
0.945408 -1.000000 -0.000000 0.707083 -0.707083 0.000000 0.852271 0.073131
0.500000 -0.681444 -0.000000 -0.630268 0.776360 0.000000 0.732447 0.164822
-0.093401 0.628105 0.105967 0.543748 -0.507523 0.668355 0.662876 0.374428
0.945408 -0.000000 0.144681 0.717338 0.000000 0.696677 0.844947 0.246114
-0.500000 -0.681444 -0.000000 -0.326182 0.945280 0.000000 0.548434 0.150578
-0.743625 -0.681444 -0.000000 0.158147 0.987396 0.000000 0.510978 0.137308
-0.406599 -0.628105 0.105967 -0.552141 0.499252 0.667714 0.577580 0.147453
-0.500000 0.681444 0.000000 -0.327250 -0.944914 0.000000 0.566876 0.390409
-1.062647 0.681444 0.000000 -0.707083 -0.707083 0.000000 0.483074 0.434385
-0.454780 0.628105 0.000000 -0.925840 -0.377850 0.000000 0.573592 0.381853
-0.406599 -0.000000 0.105967 -0.653157 0.000000 0.757195 0.586080 0.267311
-0.454780 0.000000 0.000000 -1.000000 0.000000 0.000000 0.566244 0.268861
0.000000 -0.681444 -0.000000 0.328318 0.944548 0.000000 0.669178 0.156887
-0.093401 -0.628105 0.105967 0.538835 0.513413 0.667837 0.644318 0.151949
-0.043157 -0.681444 0.175322 0.123051 0.592883 0.795801 0.652951 0.133572
-0.045220 0.000000 0.000000 1.000000 0.000000 0.000000 0.659400 0.260974
-0.093401 -0.000000 0.105967 0.648030 0.000000 0.761589 0.640472 0.262465
-0.253915 -0.681444 0.175322 -0.000946 0.341807 0.939756 0.611780 0.134244
-0.253915 -0.628105 0.139063 -0.005005 0.304117 0.952605 0.610830 0.146461
-0.253915 -0.000000 0.151792 -0.006714 0.000000 0.999969 0.613264 0.264929
-1.000000 1.300492 0.096438 -0.671194 0.385418 0.633168 0.526712 0.560772
-1.000000 1.300492 0.000000 -0.973479 0.228675 0.000000 0.512205 0.567048
0.945408 1.174520 0.000000 0.979156 -0.203040 0.000000 0.890593 0.446331
1.000000 1.300492 0.096438 0.592456 -0.057100 0.803552 0.877167 0.471491
0.500000 1.300492 0.096438 0.000000 0.276070 0.961119 0.788833 0.485810
-0.531324 1.174520 0.175322 0.000000 0.276070 0.961119 0.611680 0.500711
-1.000000 1.300492 0.096438 -0.671194 0.385418 0.633168 0.548300 0.553280
-0.253915 1.300492 0.096438 0.000000 0.276070 0.961119 0.663377 0.510667
0.000000 1.300492 0.096438 0.000000 0.276070 0.961119 0.704605 0.500997
-0.500000 1.300492 0.096438 0.000000 0.276070 0.961119 0.624866 0.522397
-1.000000 -0.597149 -0.000000 -0.586352 0.810022 0.000000 0.466234 0.128148
-1.000000 -1.000000 -0.000000 -0.707083 -0.707083 0.000000 0.509298 0.011880
-1.000000 -0.597149 -0.000000 -0.586352 0.810022 0.000000 0.445891 0.087253
-0.045220 0.628105 0.000000 0.925840 -0.377850 0.000000 0.680695 0.359466
0.945408 0.000000 0.000000 1.000000 0.000000 0.000000 0.870036 0.243618
-0.454780 -0.628105 -0.000000 -0.925840 0.377850 0.000000 0.556301 0.158013
-0.045220 -0.628105 -0.000000 0.925840 0.377850 0.000000 0.662452 0.163052
1.000000 1.300492 0.000000 0.917539 -0.397626 0.000000 0.893437 0.469494
1.000000 1.300492 0.096438 0.592456 -0.057100 0.803552 0.873825 0.473930
0.945408 0.681444 -0.175322 0.702078 -0.015992 -0.711905 0.851293 0.367004
-0.531324 1.000000 -0.175322 0.000000 0.000000 -1.000000 0.601479 0.472163
-0.452857 0.681444 -0.175322 -0.123844 -0.587542 -0.799615 0.594182 0.409812
-1.062647 0.681444 -0.175322 -0.577349 -0.577349 -0.577349 0.496776 0.460498
0.500000 -1.000000 -0.175322 0.000000 -0.707083 -0.707083 0.746909 0.080889
0.945408 1.000000 -0.175322 0.707083 0.000000 -0.707083 0.857313 0.420289
0.531324 1.000000 -0.175322 0.000000 0.000000 -1.000000 0.785632 0.429475
0.531324 1.174520 -0.175322 0.000000 0.276070 -0.961119 0.790228 0.459686
-1.062647 1.000000 -0.175322 -0.707083 0.000000 -0.707083 0.518022 0.508053
0.945408 1.174520 -0.175322 0.614002 0.146184 -0.775628 0.861014 0.449962
-1.062647 1.174520 -0.175322 -0.670553 0.291086 -0.682333 0.529424 0.534476
0.000000 1.000000 -0.175322 0.000000 0.000000 -1.000000 0.692619 0.446157
-0.253915 1.000000 -0.175322 0.000000 0.000000 -1.000000 0.648418 0.456967
-0.253915 1.174520 -0.175322 0.000000 0.276070 -0.961119 0.656737 0.486494
0.000000 1.174520 -0.175322 0.000000 0.276070 -0.961119 0.699267 0.476058
-0.743625 -1.000000 -0.175322 0.000000 -0.707083 -0.707083 0.538993 0.053895
-0.253915 -1.000000 -0.175322 0.000000 -0.707083 -0.707083 0.619791 0.075154
0.000000 -1.000000 -0.175322 0.000000 -0.707083 -0.707083 0.662703 0.079618
0.643102 0.000000 -0.144681 -0.670919 0.015290 -0.741325 0.793910 0.250569
-0.047080 0.681444 -0.175322 0.123814 -0.587634 -0.799554 0.673925 0.392536
0.531324 0.681444 -0.175322 -0.292611 -0.365429 -0.883633 0.777020 0.372199
-0.253915 0.681444 -0.175322 -0.000946 -0.341807 -0.939756 0.632422 0.397381
-0.500000 -1.000000 -0.175322 0.000000 -0.707083 -0.707083 0.578711 0.066602
-0.448997 -0.681444 -0.175322 -0.124363 0.582293 -0.803369 0.573274 0.127509
-0.253915 0.628105 -0.139063 -0.005005 -0.304117 -0.952605 0.629661 0.385143
-0.406599 0.628105 -0.105967 -0.547166 -0.505509 -0.667074 0.596015 0.389045
0.945408 -0.681444 -0.175322 0.702078 0.015992 -0.711905 0.827519 0.129702
0.500000 -0.681444 -0.175322 -0.291299 0.379376 -0.878170 0.749771 0.137337
-1.000000 -0.597149 -0.175322 -0.484817 0.669759 -0.562456 0.472185 0.099081
-1.000000 -1.000000 -0.175322 -0.577349 -0.577349 -0.577349 0.499361 0.038665
-0.743625 -0.681444 -0.175322 0.105564 0.659200 -0.744499 0.519105 0.107470
0.945408 -1.000000 -0.175322 0.577349 -0.577349 -0.577349 0.822735 0.075860
-0.093401 0.628105 -0.105967 0.543748 -0.507523 -0.668355 0.662876 0.374428
0.945408 0.000000 -0.144681 0.717338 0.000000 -0.696677 0.844947 0.246114
-0.406599 -0.628105 -0.105967 -0.552141 0.499252 -0.667714 0.577580 0.147453
-0.406599 0.000000 -0.105967 -0.653157 0.000000 -0.757195 0.586080 0.267311
-0.043157 -0.681444 -0.175322 0.123051 0.592883 -0.795801 0.652951 0.133572
-0.093401 -0.628105 -0.105967 0.538835 0.513413 -0.667837 0.644318 0.151949
-0.093401 0.000000 -0.105967 0.648030 0.000000 -0.761589 0.640472 0.262465
-0.253915 -0.681444 -0.175322 -0.000946 0.341807 -0.939756 0.611780 0.134244
-0.253915 -0.628105 -0.139063 -0.005005 0.304117 -0.952605 0.610830 0.146461
-0.253915 0.000000 -0.151792 -0.006714 0.000000 -0.999969 0.613264 0.264929
-1.000000 1.300492 -0.096438 -0.671194 0.385418 -0.633168 0.526712 0.560772
1.000000 1.300492 -0.096438 0.592456 -0.057100 -0.803552 0.877167 0.471491
0.500000 1.300492 -0.096438 0.000000 0.276070 -0.961119 0.788833 0.485810
-0.531324 1.174520 -0.175322 0.000000 0.276070 -0.961119 0.611680 0.500711
-1.000000 1.300492 -0.096438 -0.671194 0.385418 -0.633168 0.548300 0.553280
-0.253915 1.300492 -0.096438 0.000000 0.276070 -0.961119 0.663377 0.510667
0.000000 1.300492 -0.096438 0.000000 0.276070 -0.961119 0.704605 0.500997
-0.500000 1.300492 -0.096438 0.000000 0.276070 -0.961119 0.624866 0.522397
1.000000 1.300492 -0.096438 0.592456 -0.057100 -0.803552 0.873825 0.473930
3 0 1 2
3 3 4 5
3 6 7 8
3 9 10 11
3 12 13 14
3 8 15 12
3 16 17 18
3 19 20 16
3 5 21 22
3 23 24 25
3 26 27 28
3 29 30 31
3 32 33 34
3 35 34 36
3 37 36 38
3 39 38 40
3 41 42 43
3 44 43 45
3 46 45 47
3 48 49 50
3 51 50 52
3 53 52 54
3 55 56 57
3 58 57 24
3 59 60 61
3 62 63 64
3 65 66 67
3 68 69 70
3 71 72 73
3 74 75 76
3 77 78 79
3 80 81 82
3 83 84 85
3 86 87 88
3 89 90 91
3 92 93 94
3 95 96 97
3 98 99 100
3 101 102 103
3 104 105 106
3 107 108 109
3 110 111 112
3 113 114 115
3 116 117 118
3 119 120 121
3 122 123 124
3 125 126 127
3 128 129 130
3 131 132 133
3 133 134 135
3 136 137 138
3 139 140 131
3 141 142 143
3 144 145 146
3 147 8 148
3 148 12 149
3 150 11 151
3 152 153 154
3 155 156 157
3 158 159 156
3 160 161 162
3 163 164 165
3 166 167 168
3 169 2 170
3 171 172 173
3 174 175 176
3 177 178 179
3 180 176 181
3 135 182 136
3 183 173 184
3 22 185 19
3 14 186 9
3 140 149 132
3 187 148 140
3 188 146 189
3 179 190 191
3 192 170 142
3 182 151 137
3 0 193 1
3 3 194 4
3 6 195 7
3 9 186 10
3 12 15 13
3 8 7 15
3 16 20 17
3 19 185 20
3 5 4 21
3 131 140 132
3 133 132 134
3 136 182 137
3 139 187 140
3 141 192 142
3 144 196 145
3 147 6 8
3 148 8 12
3 150 9 11
3 169 0 2
3 171 197 172
3 174 198 175
3 177 199 178
3 180 174 176
3 135 134 182
3 183 171 173
3 22 21 185
3 14 13 186
3 140 148 149
3 187 147 148
3 188 144 146
3 179 178 190
3 192 169 170
3 182 150 151
3 200 2 1
3 3 5 201
3 202 203 204
3 205 206 207
3 208 209 210
3 203 208 211
3 16 18 212
3 19 16 213
3 5 22 214
3 215 216 217
3 218 28 27
3 219 31 30
3 220 221 222
3 223 224 221
3 225 226 224
3 227 228 226
3 229 230 231
3 232 233 230
3 234 235 233
3 236 237 238
3 239 240 237
3 241 242 240
3 243 244 245
3 246 217 244
3 59 247 60
3 62 248 63
3 65 249 66
3 68 250 69
3 71 251 72
3 74 252 75
3 77 253 78
3 80 254 81
3 83 255 84
3 86 256 87
3 89 257 90
3 92 258 93
3 259 260 261
3 262 263 264
3 101 265 102
3 104 266 105
3 107 267 108
3 110 268 111
3 269 270 271
3 272 273 274
3 119 275 120
3 122 276 123
3 125 277 126
3 128 278 129
3 279 280 281
3 280 282 283
3 284 285 286
3 287 279 288
3 289 143 142
3 144 290 291
3 292 293 203
3 293 294 208
3 295 296 206
3 297 154 153
3 298 299 300
3 301 300 302
3 160 162 303
3 163 165 304
3 166 168 305
3 306 170 2
3 171 307 308
3 174 309 310
3 311 312 178
3 180 313 309
3 282 284 314
3 183 315 307
3 22 19 316
3 209 205 317
3 288 281 294
3 318 288 293
3 188 319 290
3 312 320 190
3 321 142 170
3 314 286 296
3 200 1 322
3 3 201 323
3 202 204 324
3 205 207 317
3 208 210 211
3 203 211 204
3 16 212 213
3 19 213 316
3 5 214 201
3 279 281 288
3 280 283 281
3 284 286 314
3 287 288 318
3 289 142 321
3 144 291 196
3 292 203 202
3 293 208 203
3 295 206 205
3 306 2 200
3 171 308 197
3 174 310 198
3 311 178 199
3 180 309 174
3 282 314 283
3 183 307 171
3 22 316 214
3 209 317 210
3 288 294 293
3 318 293 292
3 188 290 144
3 312 190 178
3 321 170 306
3 314 296 295
3 325 326 327
3 328 329 330
3 331 332 333
3 334 335 336
3 337 338 329
3 337 339 340
3 325 341 334
3 328 342 337
3 343 344 345
3 336 346 343
3 347 348 349
3 350 351 352
3 333 353 350
3 354 355 356
3 357 358 359
3 345 330 360
3 351 361 362
3 360 363 364
3 365 354 366
3 366 353 332
3 367 368 369
3 370 369 348
3 371 372 373
3 354 326 358
3 374 354 356
3 375 357 359
3 334 358 326
3 365 332 372
3 376 327 326
3 370 377 378
3 379 377 361
3 380 329 381
3 380 363 330
3 382 383 363
3 384 379 383
3 385 386 387
3 386 388 389
3 388 375 389
3 390 379 361
3 391 383 379
3 364 383 392
3 371 376 365
3 366 385 387
3 339 393 394
3 395 396 341
3 341 397 335
3 398 399 342
3 346 400 344
3 346 397 401
3 344 402 398
3 389 364 392
3 389 391 386
3 386 390 387
3 375 360 364
3 387 351 353
3 359 345 360
3 352 362 347
3 345 398 328
3 367 378 403
3 362 370 348
3 349 369 404
3 358 343 359
3 325 334 326
3 328 337 329
3 331 372 332
3 334 341 335
3 337 340 338
3 337 342 339
3 325 395 341
3 328 398 342
3 343 346 344
3 336 335 346
3 347 362 348
3 350 353 351
3 333 332 353
3 354 358 355
3 357 355 358
3 345 328 330
3 351 390 361
3 360 330 363
3 365 376 354
3 366 387 353
3 367 405 368
3 370 367 369
3 371 365 372
3 354 376 326
3 374 366 354
3 375 406 357
3 334 336 358
3 365 366 332
3 376 407 327
3 370 361 377
3 379 408 377
3 380 330 329
3 380 382 363
3 382 384 383
3 384 408 379
3 385 409 386
3 386 409 388
3 388 406 375
3 390 391 379
3 391 392 383
3 364 363 383
3 371 407 376
3 366 374 385
3 339 342 393
3 395 410 396
3 341 411 397
3 398 402 399
3 346 401 400
3 346 335 397
3 344 400 402
3 389 375 364
3 389 392 391
3 386 391 390
3 375 359 360
3 387 390 351
3 359 343 345
3 352 351 362
3 345 344 398
3 367 370 378
3 362 361 370
3 349 348 369
3 358 336 343
3 325 327 412
3 413 414 415
3 331 333 416
3 417 418 419
3 420 415 338
3 420 340 339
3 325 417 421
3 413 420 422
3 423 424 425
3 418 423 426
3 347 349 427
3 350 352 428
3 333 350 429
3 430 356 355
3 357 431 432
3 424 433 414
3 428 434 435
3 433 436 437
3 438 439 430
3 439 416 429
3 440 441 368
3 442 427 441
3 371 373 443
3 430 432 412
3 374 356 430
3 444 431 357
3 417 412 432
3 438 443 416
3 445 412 327
3 442 378 377
3 446 435 377
3 380 381 415
3 380 414 437
3 382 437 447
3 384 447 446
3 385 448 449
3 449 450 388
3 388 450 444
3 451 435 446
3 452 446 447
3 436 453 447
3 371 438 445
3 439 448 385
3 339 394 454
3 395 421 455
3 421 419 456
3 457 422 458
3 426 425 459
3 426 460 456
3 425 457 461
3 450 453 436
3 450 449 452
3 449 448 451
3 444 436 433
3 448 429 428
3 431 433 424
3 352 347 434
3 424 413 457
3 440 403 378
3 434 427 442
3 349 404 441
3 432 431 423
3 325 412 417
3 413 415 420
3 331 416 443
3 417 419 421
3 420 338 340
3 420 339 422
3 325 421 395
3 413 422 457
3 423 425 426
3 418 426 419
3 347 427 434
3 350 428 429
3 333 429 416
3 430 355 432
3 357 432 355
3 424 414 413
3 428 435 451
3 433 437 414
3 438 430 445
3 439 429 448
3 440 368 405
3 442 441 440
3 371 443 438
3 430 412 445
3 374 430 439
3 444 357 406
3 417 432 418
3 438 416 439
3 445 327 407
3 442 377 435
3 446 377 408
3 380 415 414
3 380 437 382
3 382 447 384
3 384 446 408
3 385 449 409
3 449 388 409
3 388 444 406
3 451 446 452
3 452 447 453
3 436 447 437
3 371 445 407
3 439 385 374
3 339 454 422
3 395 455 410
3 421 456 462
3 457 458 461
3 426 459 460
3 426 456 419
3 425 461 459
3 450 436 444
3 450 452 453
3 449 451 452
3 444 433 431
3 448 428 451
3 431 424 423
3 352 434 428
3 424 457 425
3 440 378 442
3 434 442 435
3 349 441 427
3 432 423 418
